<svg width="1494" height="428" viewBox="0 0 1494 428" fill="none" xmlns="http://www.w3.org/2000/svg">
<path d="M1276.94 284V144H1351.54C1355.94 144 1359.54 145.467 1362.34 148.4C1365.27 151.2 1366.74 154.733 1366.74 159C1366.74 163.267 1365.27 166.867 1362.34 169.8C1359.54 172.6 1355.94 174 1351.54 174H1319.74C1316.41 174 1313.61 175.133 1311.34 177.4C1309.07 179.533 1307.94 182.333 1307.94 185.8V186.2C1307.94 189.533 1309.07 192.333 1311.34 194.6C1313.61 196.867 1316.41 198 1319.74 198H1341.54C1345.94 198 1349.54 199.467 1352.34 202.4C1355.27 205.2 1356.74 208.733 1356.74 213C1356.74 217.267 1355.27 220.867 1352.34 223.8C1349.54 226.6 1345.94 228 1341.54 228H1320.74C1317.01 228 1313.94 229.2 1311.54 231.6C1309.14 234 1307.94 237.067 1307.94 240.8V241.2C1307.94 244.933 1309.14 248 1311.54 250.4C1313.94 252.8 1317.01 254 1320.74 254H1351.54C1355.94 254 1359.54 255.467 1362.34 258.4C1365.27 261.2 1366.74 264.733 1366.74 269C1366.74 273.267 1365.27 276.867 1362.34 279.8C1359.54 282.6 1355.94 284 1351.54 284H1276.94Z" fill="black"/>
<path d="M1159.38 284V253H1212.38C1217.04 253 1220.71 251.867 1223.38 249.6C1226.04 247.2 1227.38 244.133 1227.38 240.4C1227.38 236.667 1226.04 233.667 1223.38 231.4C1220.71 229.133 1217.04 228 1212.38 228H1204.58C1196.31 228 1188.78 226.333 1181.98 223C1175.18 219.533 1169.78 214.667 1165.78 208.4C1161.91 202 1159.98 194.733 1159.98 186.6C1159.98 178.2 1161.91 170.8 1165.78 164.4C1169.78 157.867 1175.18 152.867 1181.98 149.4C1188.78 145.8 1196.31 144 1204.58 144H1258.38V175H1206.58C1202.31 175 1198.98 176.067 1196.58 178.2C1194.18 180.333 1192.98 183.067 1192.98 186.4C1192.98 189.733 1194.18 192.533 1196.58 194.8C1199.11 196.933 1202.44 198 1206.58 198H1258.38V284H1159.38Z" fill="black"/>
<path d="M1086.77 286C1075.43 286 1065.3 283.6 1056.37 278.8C1047.57 274 1040.63 267.133 1035.57 258.2C1030.63 249.267 1028.17 238.933 1028.17 227.2V144H1060.17V228.8C1060.17 234 1061.3 238.667 1063.57 242.8C1065.83 246.933 1068.97 250.2 1072.97 252.6C1077.1 254.867 1081.7 256 1086.77 256C1091.83 256 1096.37 254.867 1100.37 252.6C1104.5 250.2 1107.7 246.933 1109.97 242.8C1112.23 238.667 1113.37 234 1113.37 228.8V144H1145.37V227.2C1145.37 238.933 1142.83 249.267 1137.77 258.2C1132.83 267.133 1125.9 274 1116.97 278.8C1108.17 283.6 1098.1 286 1086.77 286Z" fill="black"/>
<path d="M942.205 286C928.338 286 915.805 282.8 904.605 276.4C893.405 270 884.605 261.333 878.205 250.4C871.938 239.333 868.805 227.2 868.805 214C868.805 200.8 871.938 188.733 878.205 177.8C884.605 166.733 893.405 158 904.605 151.6C915.805 145.2 928.338 142 942.205 142C956.071 142 968.605 145.2 979.805 151.6C991.005 158 999.738 166.733 1006 177.8C1012.4 188.733 1015.6 200.8 1015.6 214C1015.6 227.2 1012.4 239.333 1006 250.4C999.738 261.333 991.005 270 979.805 276.4C968.605 282.8 956.071 286 942.205 286ZM942.205 254C949.271 254 955.738 252.2 961.605 248.6C967.471 245 972.138 240.133 975.605 234C979.071 227.867 980.805 221.2 980.805 214C980.805 206.8 979.071 200.133 975.605 194C972.138 187.867 967.471 183 961.605 179.4C955.738 175.8 949.271 174 942.205 174C935.138 174 928.671 175.8 922.805 179.4C916.938 183 912.271 187.867 908.805 194C905.338 200.133 903.605 206.8 903.605 214C903.605 221.2 905.338 227.867 908.805 234C912.271 240.133 916.938 245 922.805 248.6C928.671 252.2 935.138 254 942.205 254Z" fill="black"/>
<path d="M762.863 286C754.996 286 747.929 284.2 741.663 280.6C735.529 276.867 730.663 271.8 727.062 265.4C723.596 259 721.863 251.8 721.863 243.8V182.2C721.863 179.267 720.929 176.867 719.062 175C717.196 173 714.796 172 711.863 172C708.929 172 706.529 173 704.663 175C702.796 176.867 701.863 179.267 701.863 182.2V284H669.863V185.2C669.863 176.667 671.663 169.133 675.263 162.6C678.863 156.067 683.863 151 690.263 147.4C696.663 143.8 703.863 142 711.863 142C719.863 142 727.063 143.8 733.463 147.4C739.863 151 744.863 156.067 748.463 162.6C752.063 169.133 753.863 176.667 753.863 185.2V246.8C753.863 249.467 754.729 251.667 756.463 253.4C758.196 255.133 760.329 256 762.863 256C765.396 256 767.529 255.133 769.263 253.4C770.996 251.667 771.863 249.467 771.863 246.8V185.2C771.863 176.667 773.663 169.133 777.263 162.6C780.863 156.067 785.863 151 792.263 147.4C798.663 143.8 805.863 142 813.863 142C821.863 142 829.063 143.8 835.463 147.4C841.863 151 846.863 156.067 850.463 162.6C854.063 169.133 855.863 176.667 855.863 185.2V284H823.863V182.2C823.863 179.267 822.929 176.867 821.062 175C819.196 173 816.796 172 813.863 172C810.929 172 808.529 173 806.663 175C804.796 176.867 803.863 179.267 803.863 182.2V243.8C803.863 251.8 802.063 259 798.463 265.4C794.996 271.8 790.129 276.867 783.863 280.6C777.729 284.2 770.729 286 762.863 286Z" fill="black"/>
<path d="M583.502 286C569.635 286 557.102 282.8 545.902 276.4C534.702 270 525.902 261.333 519.502 250.4C513.235 239.333 510.102 227.2 510.102 214C510.102 200.8 513.235 188.733 519.502 177.8C525.902 166.733 534.702 158 545.902 151.6C557.102 145.2 569.635 142 583.502 142C597.368 142 609.902 145.2 621.102 151.6C632.302 158 641.035 166.733 647.302 177.8C653.702 188.733 656.902 200.8 656.902 214C656.902 227.2 653.702 239.333 647.302 250.4C641.035 261.333 632.302 270 621.102 276.4C609.902 282.8 597.368 286 583.502 286ZM583.502 254C590.568 254 597.035 252.2 602.902 248.6C608.768 245 613.435 240.133 616.902 234C620.368 227.867 622.102 221.2 622.102 214C622.102 206.8 620.368 200.133 616.902 194C613.435 187.867 608.768 183 602.902 179.4C597.035 175.8 590.568 174 583.502 174C576.435 174 569.968 175.8 564.102 179.4C558.235 183 553.568 187.867 550.102 194C546.635 200.133 544.902 206.8 544.902 214C544.902 221.2 546.635 227.867 550.102 234C553.568 240.133 558.235 245 564.102 248.6C569.968 252.2 576.435 254 583.502 254Z" fill="black"/>
<path d="M434.12 190.4C434.12 185.733 432.52 181.867 429.32 178.8C426.254 175.6 422.387 174 417.72 174H387.12V144H513.12V174H482.52C477.854 174 473.92 175.6 470.72 178.8C467.654 181.867 466.12 185.733 466.12 190.4V284H434.12V190.4Z" fill="black"/>
<path d="M319.109 286C307.776 286 297.643 283.6 288.709 278.8C279.909 274 272.976 267.133 267.909 258.2C262.976 249.267 260.509 238.933 260.509 227.2V144H292.509V228.8C292.509 234 293.643 238.667 295.909 242.8C298.176 246.933 301.309 250.2 305.309 252.6C309.443 254.867 314.043 256 319.109 256C324.176 256 328.709 254.867 332.709 252.6C336.843 250.2 340.043 246.933 342.309 242.8C344.576 238.667 345.709 234 345.709 228.8V144H377.709V227.2C377.709 238.933 375.176 249.267 370.109 258.2C365.176 267.133 358.243 274 349.309 278.8C340.509 283.6 330.443 286 319.109 286Z" fill="black"/>
<path d="M163.4 163.6C169 149.2 177.533 142 189 142C200.467 142 209 149.2 214.6 163.6L261 284H225.8L185.2 174.4H191.8L151.2 284H117L163.4 163.6ZM152 253.4V224.4H226V253.4H152Z" fill="black"/>
<ellipse cx="589" cy="223.5" rx="24" ry="23.5" fill="black"/>
<ellipse cx="938" cy="223.5" rx="24" ry="23.5" fill="black"/>
</svg>
